<mxfile host="app.diagrams.net" agent="Saarthi-Godspeed-Expert" version="28.0.6">
  <diagram name="Page-1" id="new-diagram-1">
    <mxGraphModel dx="1400" dy="800" grid="1" gridSize="10" guides="1" tooltips="1" connect="1" arrows="1" fold="1" page="1" pageScale="1" pageWidth="1200" pageHeight="1100" math="0" shadow="0">
      <root>
        <mxCell id="0" />
        <mxCell id="1" parent="0" />
        
        <!-- Lifelines -->
        <mxCell id="user-lifeline" value="&lt;b&gt;User&lt;/b&gt;" style="shape=umlLifeline;perimeter=lifelinePerimeter;whiteSpace=wrap;html=1;container=0;collapsible=0;recursiveResize=0;outlineConnect=0;" vertex="1" parent="1">
          <mxGeometry x="80" y="40" width="100" height="600" as="geometry" />
        </mxCell>
        <mxCell id="agent-lifeline" value="&lt;b&gt;Agent&lt;/b&gt;" style="shape=umlLifeline;perimeter=lifelinePerimeter;whiteSpace=wrap;html=1;container=0;collapsible=0;recursiveResize=0;outlineConnect=0;" vertex="1" parent="1">
          <mxGeometry x="240" y="40" width="100" height="600" as="geometry" />
        </mxCell>
        <mxCell id="mcp-lifeline" value="&lt;b&gt;MCP Server&lt;/b&gt;" style="shape=umlLifeline;perimeter=lifelinePerimeter;whiteSpace=wrap;html=1;container=0;collapsible=0;recursiveResize=0;outlineConnect=0;" vertex="1" parent="1">
          <mxGeometry x="400" y="40" width="100" height="600" as="geometry" />
        </mxCell>
        <mxCell id="rag-lifeline" value="&lt;b&gt;RAG Agent&lt;/b&gt;" style="shape=umlLifeline;perimeter=lifelinePerimeter;whiteSpace=wrap;html=1;container=0;collapsible=0;recursiveResize=0;outlineConnect=0;" vertex="1" parent="1">
          <mxGeometry x="560" y="40" width="100" height="600" as="geometry" />
        </mxCell>
        <mxCell id="vectordb-lifeline" value="&lt;b&gt;Vector DB&lt;/b&gt;" style="shape=umlLifeline;perimeter=lifelinePerimeter;whiteSpace=wrap;html=1;container=0;collapsible=0;recursiveResize=0;outlineConnect=0;" vertex="1" parent="1">
          <mxGeometry x="720" y="40" width="100" height="600" as="geometry" />
        </mxCell>
        <mxCell id="llm-lifeline" value="&lt;b&gt;LLM&lt;/b&gt;" style="shape=umlLifeline;perimeter=lifelinePerimeter;whiteSpace=wrap;html=1;container=0;collapsible=0;recursiveResize=0;outlineConnect=0;" vertex="1" parent="1">
          <mxGeometry x="880" y="40" width="100" height="600" as="geometry" />
        </mxCell>

        <!-- User Flow Section -->
        <mxCell id="user-flow-label" value="User Interaction Flow" style="text;html=1;align=center;verticalAlign=middle;resizable=0;points=[];autosize=1;strokeColor=none;fillColor=none;fontStyle=1;fontSize=12;" vertex="1" parent="1">
          <mxGeometry x="80" y="80" width="150" height="25" as="geometry"/>
        </mxCell>
        
        <!-- User Flow Messages -->
        <mxCell id="user-msg-1" value="1. sends query" style="html=1;verticalAlign=bottom;endArrow=block;curved=0;rounded=0;" edge="1" parent="1">
          <mxGeometry relative="1" as="geometry">
            <mxPoint x="130" y="120" as="sourcePoint"/>
            <mxPoint x="610" y="120" as="targetPoint"/>
          </mxGeometry>
        </mxCell>
        <mxCell id="user-msg-2" value="2. performs Vector search" style="html=1;verticalAlign=bottom;endArrow=block;curved=0;rounded=0;" edge="1" parent="1">
          <mxGeometry relative="1" as="geometry">
            <mxPoint x="610" y="160" as="sourcePoint"/>
            <mxPoint x="770" y="160" as="targetPoint"/>
          </mxGeometry>
        </mxCell>
        <mxCell id="user-msg-3" value="3. returns top-k chunks" style="html=1;verticalAlign=bottom;endArrow=open;dashed=1;endSize=8;curved=0;rounded=0;" edge="1" parent="1">
          <mxGeometry relative="1" as="geometry">
            <mxPoint x="770" y="200" as="sourcePoint"/>
            <mxPoint x="610" y="200" as="targetPoint"/>
          </mxGeometry>
        </mxCell>
        <mxCell id="user-msg-4" value="4. build contextual prompt" style="html=1;verticalAlign=bottom;endArrow=block;curved=0;rounded=0;" edge="1" parent="1">
          <mxGeometry relative="1" as="geometry">
            <mxPoint x="610" y="240" as="sourcePoint"/>
            <mxPoint x="930" y="240" as="targetPoint"/>
          </mxGeometry>
        </mxCell>
        <mxCell id="user-msg-5" value="5. grounded answer" style="html=1;verticalAlign=bottom;endArrow=open;dashed=1;endSize=8;curved=0;rounded=0;" edge="1" parent="1">
          <mxGeometry relative="1" as="geometry">
            <mxPoint x="930" y="280" as="sourcePoint"/>
            <mxPoint x="610" y="280" as="targetPoint"/>
          </mxGeometry>
        </mxCell>
        <mxCell id="user-msg-6" value="6. streams the response" style="html=1;verticalAlign=bottom;endArrow=open;dashed=1;endSize=8;curved=0;rounded=0;" edge="1" parent="1">
          <mxGeometry relative="1" as="geometry">
            <mxPoint x="610" y="320" as="sourcePoint"/>
            <mxPoint x="130" y="320" as="targetPoint"/>
          </mxGeometry>
        </mxCell>

        <!-- Agent Flow Section -->
        <mxCell id="agent-flow-label" value="Agent Interaction Flow" style="text;html=1;align=center;verticalAlign=middle;resizable=0;points=[];autosize=1;strokeColor=none;fillColor=none;fontStyle=1;fontSize=12;" vertex="1" parent="1">
          <mxGeometry x="240" y="360" width="150" height="25" as="geometry"/>
        </mxCell>
        
        <!-- Agent Flow Messages -->
        <mxCell id="agent-msg-1" value="1. sends request" style="html=1;verticalAlign=bottom;endArrow=block;curved=0;rounded=0;" edge="1" parent="1">
          <mxGeometry relative="1" as="geometry">
            <mxPoint x="290" y="400" as="sourcePoint"/>
            <mxPoint x="450" y="400" as="targetPoint"/>
          </mxGeometry>
        </mxCell>
        <mxCell id="agent-msg-2" value="2. forwards request" style="html=1;verticalAlign=bottom;endArrow=block;curved=0;rounded=0;" edge="1" parent="1">
          <mxGeometry relative="1" as="geometry">
            <mxPoint x="450" y="440" as="sourcePoint"/>
            <mxPoint x="610" y="440" as="targetPoint"/>
          </mxGeometry>
        </mxCell>
        <mxCell id="agent-msg-3" value="3. performs Vector search" style="html=1;verticalAlign=bottom;endArrow=block;curved=0;rounded=0;" edge="1" parent="1">
          <mxGeometry relative="1" as="geometry">
            <mxPoint x="610" y="480" as="sourcePoint"/>
            <mxPoint x="770" y="480" as="targetPoint"/>
          </mxGeometry>
        </mxCell>
        <mxCell id="agent-msg-4" value="4. returns top-k chunks" style="html=1;verticalAlign=bottom;endArrow=open;dashed=1;endSize=8;curved=0;rounded=0;" edge="1" parent="1">
          <mxGeometry relative="1" as="geometry">
            <mxPoint x="770" y="520" as="sourcePoint"/>
            <mxPoint x="610" y="520" as="targetPoint"/>
          </mxGeometry>
        </mxCell>
        <mxCell id="agent-msg-5" value="5. sends retrieved contents" style="html=1;verticalAlign=bottom;endArrow=open;dashed=1;endSize=8;curved=0;rounded=0;" edge="1" parent="1">
          <mxGeometry relative="1" as="geometry">
            <mxPoint x="610" y="560" as="sourcePoint"/>
            <mxPoint x="450" y="560" as="targetPoint"/>
          </mxGeometry>
        </mxCell>
        <mxCell id="agent-msg-6" value="6. returns retrieved contents" style="html=1;verticalAlign=bottom;endArrow=open;dashed=1;endSize=8;curved=0;rounded=0;" edge="1" parent="1">
          <mxGeometry relative="1" as="geometry">
            <mxPoint x="450" y="600" as="sourcePoint"/>
            <mxPoint x="290" y="600" as="targetPoint"/>
          </mxGeometry>
        </mxCell>
      </root>
    </mxGraphModel>
  </diagram>
</mxfile>